# xmcd
#
# Track frame offsets: 
#        150
#        13807
#        29097
#        42192
#        53652
#        66095
#        80372
#        92662
#        105160
#        114835
#        126880
#        138445
#        150095
#        165392
#        176325
#        192060
#        204790
#        218697
#
# Disc length: 3153 seconds
#
# Revision: 4
# Processed by: cddbd v1.5.1PL0 Copyright (c) Steve Scherf et al.
# Submitted via: ExactAudioCopy v0.95a5
#
DISCID=d50c4f12
DTITLE=Various Artist - Superblues, Volume 2
DYEAR=1991
DGENRE=Blues
TTITLE0=Guitar Slim - The Things That I Used To Do
TTITLE1=Joe Turner - Chains of Love
TTITLE2=Percy Mayfield - Please Send Me Someone To Love
TTITLE3=Lloyd Price - Lawdy Miss Clawdy
TTITLE4=Elmore James and His Broom Dusters - Standing At the Crossroads
TTITLE5=Lowell Fulson - Reconsider Baby
TTITLE6=Roscoe Gordon - No More Doggin'
TTITLE7=Little Joe Blue - Dirty Work Going On
TTITLE8=Gene Allison - You Can Make It If You Try
TTITLE9=Little Junior Parker - Next Time You See Me
TTITLE10=Sonny Boy Williamson - Don't Start Me To Talkin'
TTITLE11=Donnie Elbert - Will You Ever Be Mine
TTITLE12=O. V. Wright - You're Gonna Make Me Cry
TTITLE13=Jimmy Hughes - Steal Away
TTITLE14=Johnnie Taylor - Steal Away
TTITLE15=Little Johnny Taylor - You'll Need Another Favor
TTITLE16=Joe Hinton - Funny
TTITLE17=Albert King - Breaking Up Somebody's Home
EXTD=LABEL =Stax Records - Fantasy, Inc.\nID =SCD-8559-2\nUPC =02521
EXTD=8-8559-21\nCOPYRIGHT =1991\n*****\nsubtitle ="All Time Classic B
EXTD=lues Hits"
EXTT0=
EXTT1=
EXTT2=
EXTT3=
EXTT4=
EXTT5=
EXTT6=
EXTT7=
EXTT8=
EXTT9=
EXTT10=
EXTT11=
EXTT12=
EXTT13=
EXTT14=
EXTT15=
EXTT16=
EXTT17=
PLAYORDER=
